HIERARCHY
ROOT Hips
{
  OFFSET 49.4882 86.4424 7.26824
  CHANNELS 6 Xposition Yposition Zposition Zrotation Xrotation Yrotation
  JOINT spine
  {
    OFFSET 0 6.84637 0.3937
    CHANNELS 3 Zrotation Xrotation Yrotation
    JOINT spine1
    {
      OFFSET 0 9.49621 0
      CHANNELS 3 Zrotation Xrotation Yrotation
      JOINT spine2
      {
        OFFSET 0 9.09909 0
        CHANNELS 3 Zrotation Xrotation Yrotation
        JOINT Neck
        {
          OFFSET 0 23.3612 1.11378
          CHANNELS 3 Zrotation Xrotation Yrotation
          JOINT Head
          {
            OFFSET 0 7.05802 0
            CHANNELS 3 Zrotation Xrotation Yrotation
            End Site
            {
              OFFSET 0 17.0844 -5.63419
            }
          }
        }
        JOINT RightShoulder
        {
          OFFSET -3.83136 9.82631 -0.533491
          CHANNELS 3 Zrotation Xrotation Yrotation
          JOINT RightArm
          {
            OFFSET 0 12.8881 0
            CHANNELS 3 Zrotation Xrotation Yrotation
            JOINT RightArmRoll
            {
              OFFSET 0 6.50617 0
              CHANNELS 3 Zrotation Xrotation Yrotation
              JOINT RightForeArm
              {
                OFFSET 0 18.9501 0
                CHANNELS 3 Zrotation Xrotation Yrotation
                JOINT RightForeArmRoll
                {
                  OFFSET 0 7.30093 0
                  CHANNELS 3 Zrotation Xrotation Yrotation
                  JOINT RightHand
                  {
                    OFFSET 0 14.6514 0
                    CHANNELS 3 Zrotation Xrotation Yrotation
                    End Site
                    {
                      OFFSET 0 0 0
                    }
                  }
                }
              }
            }
          }
        }
        JOINT LeftShoulder
        {
          OFFSET 3.83136 9.82631 -0.533491
          CHANNELS 3 Zrotation Xrotation Yrotation
          JOINT LeftArm
          {
            OFFSET 0 12.8881 0
            CHANNELS 3 Zrotation Xrotation Yrotation
            JOINT LeftArmRoll
            {
              OFFSET 0 6.50617 0
              CHANNELS 3 Zrotation Xrotation Yrotation
              JOINT LeftForeArm
              {
                OFFSET 0 18.9501 0
                CHANNELS 3 Zrotation Xrotation Yrotation
                JOINT LeftForeArmRoll
                {
                  OFFSET 0 7.30093 0
                  CHANNELS 3 Zrotation Xrotation Yrotation
                  JOINT LeftHand
                  {
                    OFFSET 0 14.6514 0
                    CHANNELS 3 Zrotation Xrotation Yrotation
                    End Site
                    {
                      OFFSET 0 0 0
                    }
                  }
                }
              }
            }
          }
        }
      }
    }
  }
  JOINT RightUpLeg
  {
    OFFSET -6.06837 -1.11278 -0.933477
    CHANNELS 3 Zrotation Xrotation Yrotation
    JOINT RightUpLegRoll
    {
      OFFSET 0 17.1796 0
      CHANNELS 3 Zrotation Xrotation Yrotation
      JOINT RightLeg
      {
        OFFSET 0 -21.2743 0
        CHANNELS 3 Zrotation Xrotation Yrotation
        JOINT RightLegRoll
        {
          OFFSET 0 21.3439 0
          CHANNELS 3 Zrotation Xrotation Yrotation
          JOINT RightFoot
          {
            OFFSET 0 17.7652 0
            CHANNELS 3 Zrotation Xrotation Yrotation
            JOINT RightToeBase
            {
              OFFSET 0 14.8508 0
              CHANNELS 3 Zrotation Xrotation Yrotation
              End Site
              {
                OFFSET 0.0062947 7.19213 -0.829005
              }
            }
          }
        }
      }
    }
  }
  JOINT LeftUpLeg
  {
    OFFSET 6.06837 -1.11278 -0.933477
    CHANNELS 3 Zrotation Xrotation Yrotation
    JOINT LeftUpLegRoll
    {
      OFFSET 0 17.1797 0
      CHANNELS 3 Zrotation Xrotation Yrotation
      JOINT LeftLeg
      {
        OFFSET 0 21.2742 0
        CHANNELS 3 Zrotation Xrotation Yrotation
        JOINT LeftLegRoll
        {
          OFFSET 0 21.5412 0
          CHANNELS 3 Zrotation Xrotation Yrotation
          JOINT LeftFoot
          {
            OFFSET 0 17.5679 0
            CHANNELS 3 Zrotation Xrotation Yrotation
            JOINT LeftToeBase
            {
              OFFSET 0 14.8508 0
              CHANNELS 3 Zrotation Xrotation Yrotation
              End Site
              {
                OFFSET -0.0282102 7.19213 -0.829005
              }
            }
          }
        }
      }
    }
  }
}
MOTION
Frames: 5
Frame Time: 0.00208333
49.4006 86.3734 6.53697 -0.232204 -2.17886 -1.02411 1.57789 -1.66448 1.23422 3.17139 0.685706 2.31214 3.14289 2.32879 2.25994 -18.5163 3.3285 -1.87381 11.8204 8.90986 -5.88363 47.9466 -6.93941 -3.80915 146.715 43.8514 -73.3345 -8.90291e-006 -2.26305e-006 -1.07823e-005 8.31718 56.6478 0.147739 -1.0105e-005 -6.84688e-006 -3.00107 8.02905 -4.9514 0.697699 -72.8823 -6.53097 4.62445 -145.845 49.162 54.3171 -1.2601e-006 1.96387e-007 3.2384e-006 -38.1645 45.9789 17.9383 2.88347e-006 -9.39995e-007 3.00417 -8.02935 -4.95138 -0.697697 -178.838 14.6847 -3.42045 -180 7.01464e-015 178.608 176.463 25.0728 -179.703 -1.49932e-006 -1.9549e-007 0.7939 -24.6897 71.3968 23.1778 8.13649 25.2327 -3.48773 -175.146 12.996 -2.30266 4.54188e-006 -4.6773e-006 -0.760199 -2.13982 -26.2355 0.40798 5.37675e-007 -3.05192e-006 -0.382787 21.7041 73.9533 -25.7258 -8.13649 25.2327 3.48774 
49.3983 86.3724 6.53018 -0.227309 -2.17428 -1.02833 1.57682 -1.66522 1.2339 3.16964 0.684149 2.31225 3.14137 2.32723 2.26006 -18.5388 3.33013 -1.87455 11.8419 8.89945 -5.88828 47.9375 -6.93017 -3.80161 146.69 43.8685 -73.1932 -8.90291e-006 -2.26305e-006 -1.07823e-005 8.31295 56.6497 0.128694 -1.0105e-005 -6.84688e-006 -3.00107 8.02905 -4.9514 0.697699 -72.8967 -6.53166 4.62536 -145.822 49.199 54.2658 -1.2601e-006 1.96387e-007 3.2384e-006 -38.1638 45.9725 17.9455 2.88347e-006 -9.39995e-007 3.00417 -8.02935 -4.95138 -0.697697 -178.843 14.6894 -3.41793 -180 7.01464e-015 178.608 176.464 25.0703 -179.703 -1.49932e-006 -1.9549e-007 0.793845 -24.687 71.3944 23.1754 8.13649 25.2327 -3.48773 -175.152 12.9978 -2.29967 4.54188e-006 -4.6773e-006 -0.760184 -2.14168 -26.2296 0.407431 5.37675e-007 -3.05192e-006 -0.382731 21.6991 73.9502 -25.7194 -8.13649 25.2327 3.48774 
49.3992 86.3706 6.5268 -0.222299 -2.16955 -1.03259 1.57574 -1.66602 1.23355 3.16791 0.682539 2.31231 3.13988 2.32562 2.26014 -18.562 3.33077 -1.8754 11.8633 8.88872 -5.89302 47.9288 -6.92046 -3.79373 146.663 43.8849 -73.0491 -8.90291e-006 -2.26305e-006 -1.07823e-005 8.30613 56.655 0.11035 -1.0105e-005 -6.84688e-006 -3.00107 8.02905 -4.9514 0.697699 -72.91 -6.53217 4.62613 -145.799 49.2379 54.2078 -1.2601e-006 1.96387e-007 3.2384e-006 -38.1602 45.9666 17.9528 2.88347e-006 -9.39995e-007 3.00417 -8.02935 -4.95138 -0.697697 -178.849 14.6942 -3.41537 -180 7.01464e-015 178.609 176.464 25.0677 -179.703 -1.49932e-006 -1.9549e-007 0.79379 -24.6843 71.3919 23.1729 8.13649 25.2327 -3.48773 -175.157 12.9996 -2.29656 4.54188e-006 -4.6773e-006 -0.76017 -2.14353 -26.2236 0.406891 5.37675e-007 -3.05192e-006 -0.382676 21.6941 73.947 -25.7129 -8.13649 25.2327 3.48774 
49.3971 86.3794 6.54763 -0.217292 -2.16457 -1.03678 1.57465 -1.6669 1.23317 3.16621 0.680836 2.31229 3.13845 2.32392 2.26015 -18.5858 3.33035 -1.87632 11.8844 8.87773 -5.89776 47.9205 -6.91053 -3.7857 146.635 43.9007 -72.9035 -8.90291e-006 -2.26305e-006 -1.07823e-005 8.29619 56.6641 0.0931118 -1.0105e-005 -6.84688e-006 -3.00107 8.02905 -4.9514 0.697699 -72.9221 -6.53252 4.62678 -145.775 49.2783 54.1438 -1.2601e-006 1.96387e-007 3.2384e-006 -38.1536 45.9613 17.9602 2.88347e-006 -9.39995e-007 3.00417 -8.02935 -4.95138 -0.697697 -178.855 14.6992 -3.41283 -180 7.01464e-015 178.609 176.465 25.065 -179.704 -1.49932e-006 -1.9549e-007 0.793734 -24.6816 71.3894 23.1704 8.13649 25.2327 -3.48773 -175.162 13.0016 -2.29338 4.54188e-006 -4.6773e-006 -0.760156 -2.14535 -26.2174 0.406368 5.37675e-007 -3.05192e-006 -0.38262 21.6889 73.9438 -25.7063 -8.13649 25.2327 3.48774 
49.3979 86.3787 6.53886 -0.212408 -2.15925 -1.04084 1.57358 -1.66788 1.23276 3.16457 0.678998 2.31218 3.13708 2.32208 2.26007 -18.6098 3.3288 -1.87729 11.9048 8.86659 -5.90244 47.9128 -6.90061 -3.7777 146.606 43.916 -72.7575 -8.90291e-006 -2.26305e-006 -1.07823e-005 8.28263 56.6774 0.0773865 -1.0105e-005 -6.84688e-006 -3.00107 8.02905 -4.9514 0.697699 -72.933 -6.53276 4.62734 -145.752 49.3202 54.0741 -1.2601e-006 1.96387e-007 3.2384e-006 -38.144 45.9566 17.9674 2.88347e-006 -9.39995e-007 3.00417 -8.02935 -4.95138 -0.697697 -178.86 14.7046 -3.41037 -180 7.01464e-015 178.609 176.465 25.0622 -179.704 -1.49932e-006 -1.9549e-007 0.793679 -24.6789 71.3869 23.1679 8.13649 25.2327 -3.48773 -175.167 13.0041 -2.29019 4.54188e-006 -4.6773e-006 -0.760143 -2.1471 -26.2114 0.40587 5.37675e-007 -3.05192e-006 -0.382565 21.6837 73.9406 -25.6997 -8.13649 25.2327 3.48774 
